<svg width="3153" height="1440" viewBox="0 0 3153 1440" fill="none" xmlns="http://www.w3.org/2000/svg">
<path d="M1591.37 363H743.225C545.933 363 386 522.933 386 720.225C386 917.517 545.933 1077.45 743.225 1077.45H1591.37L1501.75 724.108L1591.37 363ZM1497.76 1000.74H751.83C596.935 1000.74 471.423 875.225 471.423 720.33C471.423 565.434 596.935 439.923 751.83 439.923H1497.76L1427.35 723.373L1497.76 1000.74Z" fill="#FF5C00"/>
<path d="M2411.08 363H1673.75L1655.39 439.923H2402.47C2557.37 439.923 2682.88 565.435 2682.88 720.33C2682.88 875.225 2557.26 1000.74 2402.47 1000.74H1659.58L1678.68 1077.66H2411.08C2608.37 1077.66 2768.3 917.727 2768.3 720.435C2768.3 523.143 2608.37 363 2411.08 363Z" fill="white"/>
<path d="M791.183 579.601L827.598 850.983H745.113L735.564 777.209H620.442L588.329 850.983L508.258 848.57L616.244 593.034L602.286 579.601H791.183V579.601ZM685.086 625.671L639.016 731.139H731.156L717.199 625.671H685.086V625.671ZM1058.79 795.783L1067.92 740.689H883.743L906.725 579.601H1178.21L1169.08 657.784H1076.94L1081.77 625.671H994.038L980.08 694.724H1164.25L1145.99 818.871C1145.99 823.383 1144.84 827.686 1142.64 831.779C1140.75 835.662 1138.02 839.02 1134.45 841.853C1130.99 844.687 1126.9 846.995 1122.49 848.57C1118.29 850.144 1113.88 850.983 1109.05 850.983H869.785L878.915 777.209L892.873 795.888H1058.79V795.783ZM1539.11 579.601L1501.75 724.213L1507.21 745.831H1317.89L1305.4 850.878H1218.2L1253.67 592.929L1221.55 579.497H1539.11V579.601ZM1336.57 624.517L1324.08 702.384H1432.59L1451.9 624.517H1336.57V624.517ZM2071.69 579.601L2056.37 717.706C2056.37 722.219 2055.22 726.521 2053.01 730.614C2051.13 734.497 2048.4 737.855 2044.83 740.689C2041.26 743.522 2037.27 745.831 2032.87 747.405C2028.67 748.979 2024.26 749.819 2019.43 749.819H1959.51L2032.87 818.871L2071.69 850.983H1955.1L1862.96 749.819L1849.01 850.983H1756.87L1766.31 818.871L1788.98 597.862V579.601H2071.69V579.601ZM1876.92 625.671L1867.37 703.854H1969.06L1978.19 625.671H1876.92V625.671ZM2246.11 579.601L2218.09 850.983H2143.37L2171.39 579.601H2246.11V579.601ZM2423.78 579.601L2520.22 749.819L2543.2 579.601H2647.93L2619.91 596.392L2584.97 850.878H2492.83L2400.69 684.964L2377.71 850.878H2280.32L2299 823.593L2331.64 579.497H2423.78V579.601Z" fill="white"/>
<path d="M1706.81 691.995L1648.57 687.903L1656.75 570.367L1550.24 738.59L1608.48 742.683L1600.29 860.218L1706.81 691.995Z" fill="white"/>
</svg>
